<mxfile host="Electron" agent="Mozilla/5.0 (Windows NT 10.0; Win64; x64) AppleWebKit/537.36 (KHTML, like Gecko) draw.io/24.7.17 Chrome/128.0.6613.36 Electron/32.0.1 Safari/537.36" version="24.7.17">
  <diagram id="R2lEEEUBdFMjLlhIrx00" name="Page-1">
    <mxGraphModel dx="784" dy="770" grid="1" gridSize="10" guides="1" tooltips="1" connect="1" arrows="1" fold="1" page="1" pageScale="1" pageWidth="850" pageHeight="1100" math="0" shadow="0" extFonts="Permanent Marker^https://fonts.googleapis.com/css?family=Permanent+Marker">
      <root>
        <mxCell id="0" />
        <mxCell id="1" parent="0" />
        <mxCell id="C-vyLk0tnHw3VtMMgP7b-1" value="" style="edgeStyle=entityRelationEdgeStyle;endArrow=ERzeroToMany;startArrow=ERone;endFill=1;startFill=0;exitX=0;exitY=0.5;exitDx=0;exitDy=0;entryX=0;entryY=0;entryDx=0;entryDy=0;" parent="1" source="PTR7cAVYqw3V-Y_1MNSm-2" target="PTR7cAVYqw3V-Y_1MNSm-17" edge="1">
          <mxGeometry width="100" height="100" relative="1" as="geometry">
            <mxPoint x="385" y="180" as="sourcePoint" />
            <mxPoint x="170" y="400" as="targetPoint" />
            <Array as="points">
              <mxPoint x="180" y="330" />
              <mxPoint x="380" y="170" />
              <mxPoint x="270" y="220" />
            </Array>
          </mxGeometry>
        </mxCell>
        <mxCell id="PTR7cAVYqw3V-Y_1MNSm-1" value="Parent Array (Level 1)" style="swimlane;fontStyle=0;childLayout=stackLayout;horizontal=1;startSize=26;horizontalStack=0;resizeParent=1;resizeParentMax=0;resizeLast=0;collapsible=1;marginBottom=0;align=center;fontSize=14;" parent="1" vertex="1">
          <mxGeometry x="578" y="70" width="190" height="270" as="geometry" />
        </mxCell>
        <mxCell id="PTR7cAVYqw3V-Y_1MNSm-2" value="Child Slot 0" style="text;strokeColor=none;fillColor=none;spacingLeft=4;spacingRight=4;overflow=hidden;rotatable=0;points=[[0,0.5],[1,0.5]];portConstraint=eastwest;fontSize=12;whiteSpace=wrap;html=1;" parent="PTR7cAVYqw3V-Y_1MNSm-1" vertex="1">
          <mxGeometry y="26" width="190" height="30" as="geometry" />
        </mxCell>
        <mxCell id="PTR7cAVYqw3V-Y_1MNSm-3" value="Child Array&amp;nbsp;Slot 1" style="text;strokeColor=none;fillColor=none;spacingLeft=4;spacingRight=4;overflow=hidden;rotatable=0;points=[[0,0.5],[1,0.5]];portConstraint=eastwest;fontSize=12;whiteSpace=wrap;html=1;" parent="PTR7cAVYqw3V-Y_1MNSm-1" vertex="1">
          <mxGeometry y="56" width="190" height="34" as="geometry" />
        </mxCell>
        <mxCell id="PTR7cAVYqw3V-Y_1MNSm-4" value="Child Array&amp;nbsp;Slot 2" style="text;strokeColor=none;fillColor=none;spacingLeft=4;spacingRight=4;overflow=hidden;rotatable=0;points=[[0,0.5],[1,0.5]];portConstraint=eastwest;fontSize=12;whiteSpace=wrap;html=1;" parent="PTR7cAVYqw3V-Y_1MNSm-1" vertex="1">
          <mxGeometry y="90" width="190" height="30" as="geometry" />
        </mxCell>
        <mxCell id="PTR7cAVYqw3V-Y_1MNSm-12" value="Child Array&amp;nbsp;Slot 3" style="text;strokeColor=none;fillColor=none;spacingLeft=4;spacingRight=4;overflow=hidden;rotatable=0;points=[[0,0.5],[1,0.5]];portConstraint=eastwest;fontSize=12;whiteSpace=wrap;html=1;" parent="PTR7cAVYqw3V-Y_1MNSm-1" vertex="1">
          <mxGeometry y="120" width="190" height="30" as="geometry" />
        </mxCell>
        <mxCell id="PTR7cAVYqw3V-Y_1MNSm-13" value="Child Array&amp;nbsp;Slot 4" style="text;strokeColor=none;fillColor=none;spacingLeft=4;spacingRight=4;overflow=hidden;rotatable=0;points=[[0,0.5],[1,0.5]];portConstraint=eastwest;fontSize=12;whiteSpace=wrap;html=1;" parent="PTR7cAVYqw3V-Y_1MNSm-1" vertex="1">
          <mxGeometry y="150" width="190" height="30" as="geometry" />
        </mxCell>
        <mxCell id="PTR7cAVYqw3V-Y_1MNSm-14" value="Child Array&amp;nbsp;Slot 5" style="text;strokeColor=none;fillColor=none;spacingLeft=4;spacingRight=4;overflow=hidden;rotatable=0;points=[[0,0.5],[1,0.5]];portConstraint=eastwest;fontSize=12;whiteSpace=wrap;html=1;" parent="PTR7cAVYqw3V-Y_1MNSm-1" vertex="1">
          <mxGeometry y="180" width="190" height="30" as="geometry" />
        </mxCell>
        <mxCell id="PTR7cAVYqw3V-Y_1MNSm-15" value="Child Array Slot 6" style="text;strokeColor=none;fillColor=none;spacingLeft=4;spacingRight=4;overflow=hidden;rotatable=0;points=[[0,0.5],[1,0.5]];portConstraint=eastwest;fontSize=12;whiteSpace=wrap;html=1;" parent="PTR7cAVYqw3V-Y_1MNSm-1" vertex="1">
          <mxGeometry y="210" width="190" height="30" as="geometry" />
        </mxCell>
        <mxCell id="PTR7cAVYqw3V-Y_1MNSm-16" value="Child Array&amp;nbsp;Slot 7&lt;div&gt;&lt;br&gt;&lt;/div&gt;" style="text;strokeColor=none;fillColor=none;spacingLeft=4;spacingRight=4;overflow=hidden;rotatable=0;points=[[0,0.5],[1,0.5]];portConstraint=eastwest;fontSize=12;whiteSpace=wrap;html=1;" parent="PTR7cAVYqw3V-Y_1MNSm-1" vertex="1">
          <mxGeometry y="240" width="190" height="30" as="geometry" />
        </mxCell>
        <mxCell id="PTR7cAVYqw3V-Y_1MNSm-17" value="Child Array (Level 0)" style="swimlane;fontStyle=0;childLayout=stackLayout;horizontal=1;startSize=26;horizontalStack=0;resizeParent=1;resizeParentMax=0;resizeLast=0;collapsible=1;marginBottom=0;align=center;fontSize=14;" parent="1" vertex="1">
          <mxGeometry x="80" y="400" width="190" height="270" as="geometry" />
        </mxCell>
        <mxCell id="PTR7cAVYqw3V-Y_1MNSm-18" value="Data Slot 0 / Array Slot 0" style="text;strokeColor=none;fillColor=none;spacingLeft=4;spacingRight=4;overflow=hidden;rotatable=0;points=[[0,0.5],[1,0.5]];portConstraint=eastwest;fontSize=12;whiteSpace=wrap;html=1;" parent="PTR7cAVYqw3V-Y_1MNSm-17" vertex="1">
          <mxGeometry y="26" width="190" height="30" as="geometry" />
        </mxCell>
        <mxCell id="PTR7cAVYqw3V-Y_1MNSm-19" value="Data&amp;nbsp;Slot 1 / Array Slot 1" style="text;strokeColor=none;fillColor=none;spacingLeft=4;spacingRight=4;overflow=hidden;rotatable=0;points=[[0,0.5],[1,0.5]];portConstraint=eastwest;fontSize=12;whiteSpace=wrap;html=1;" parent="PTR7cAVYqw3V-Y_1MNSm-17" vertex="1">
          <mxGeometry y="56" width="190" height="34" as="geometry" />
        </mxCell>
        <mxCell id="PTR7cAVYqw3V-Y_1MNSm-20" value="Data&amp;nbsp;Slot 2 / Array Slot 2" style="text;strokeColor=none;fillColor=none;spacingLeft=4;spacingRight=4;overflow=hidden;rotatable=0;points=[[0,0.5],[1,0.5]];portConstraint=eastwest;fontSize=12;whiteSpace=wrap;html=1;" parent="PTR7cAVYqw3V-Y_1MNSm-17" vertex="1">
          <mxGeometry y="90" width="190" height="30" as="geometry" />
        </mxCell>
        <mxCell id="PTR7cAVYqw3V-Y_1MNSm-21" value="Data&amp;nbsp;Slot 3&amp;nbsp;/ Array Slot 3" style="text;strokeColor=none;fillColor=none;spacingLeft=4;spacingRight=4;overflow=hidden;rotatable=0;points=[[0,0.5],[1,0.5]];portConstraint=eastwest;fontSize=12;whiteSpace=wrap;html=1;" parent="PTR7cAVYqw3V-Y_1MNSm-17" vertex="1">
          <mxGeometry y="120" width="190" height="30" as="geometry" />
        </mxCell>
        <mxCell id="PTR7cAVYqw3V-Y_1MNSm-22" value="Data&amp;nbsp;Slot 4&amp;nbsp;/ Array Slot 4" style="text;strokeColor=none;fillColor=none;spacingLeft=4;spacingRight=4;overflow=hidden;rotatable=0;points=[[0,0.5],[1,0.5]];portConstraint=eastwest;fontSize=12;whiteSpace=wrap;html=1;" parent="PTR7cAVYqw3V-Y_1MNSm-17" vertex="1">
          <mxGeometry y="150" width="190" height="30" as="geometry" />
        </mxCell>
        <mxCell id="PTR7cAVYqw3V-Y_1MNSm-23" value="Data&amp;nbsp;Slot 5&amp;nbsp;/ Array Slot 5" style="text;strokeColor=none;fillColor=none;spacingLeft=4;spacingRight=4;overflow=hidden;rotatable=0;points=[[0,0.5],[1,0.5]];portConstraint=eastwest;fontSize=12;whiteSpace=wrap;html=1;" parent="PTR7cAVYqw3V-Y_1MNSm-17" vertex="1">
          <mxGeometry y="180" width="190" height="30" as="geometry" />
        </mxCell>
        <mxCell id="PTR7cAVYqw3V-Y_1MNSm-24" value="Data&amp;nbsp;Slot 6&amp;nbsp;/ Array Slot 6" style="text;strokeColor=none;fillColor=none;spacingLeft=4;spacingRight=4;overflow=hidden;rotatable=0;points=[[0,0.5],[1,0.5]];portConstraint=eastwest;fontSize=12;whiteSpace=wrap;html=1;" parent="PTR7cAVYqw3V-Y_1MNSm-17" vertex="1">
          <mxGeometry y="210" width="190" height="30" as="geometry" />
        </mxCell>
        <mxCell id="PTR7cAVYqw3V-Y_1MNSm-25" value="Data&amp;nbsp;Slot 7&amp;nbsp;/ Array Slot 7&lt;div&gt;&lt;br&gt;&lt;/div&gt;" style="text;strokeColor=none;fillColor=none;spacingLeft=4;spacingRight=4;overflow=hidden;rotatable=0;points=[[0,0.5],[1,0.5]];portConstraint=eastwest;fontSize=12;whiteSpace=wrap;html=1;" parent="PTR7cAVYqw3V-Y_1MNSm-17" vertex="1">
          <mxGeometry y="240" width="190" height="30" as="geometry" />
        </mxCell>
        <mxCell id="PTR7cAVYqw3V-Y_1MNSm-26" value="Child Array (Level 0)" style="swimlane;fontStyle=0;childLayout=stackLayout;horizontal=1;startSize=26;horizontalStack=0;resizeParent=1;resizeParentMax=0;resizeLast=0;collapsible=1;marginBottom=0;align=center;fontSize=14;" parent="1" vertex="1">
          <mxGeometry x="280" y="400" width="190" height="270" as="geometry" />
        </mxCell>
        <mxCell id="PTR7cAVYqw3V-Y_1MNSm-27" value="Data&amp;nbsp;Slot 8&amp;nbsp;/ Array Slot 0" style="text;strokeColor=none;fillColor=none;spacingLeft=4;spacingRight=4;overflow=hidden;rotatable=0;points=[[0,0.5],[1,0.5]];portConstraint=eastwest;fontSize=12;whiteSpace=wrap;html=1;" parent="PTR7cAVYqw3V-Y_1MNSm-26" vertex="1">
          <mxGeometry y="26" width="190" height="30" as="geometry" />
        </mxCell>
        <mxCell id="PTR7cAVYqw3V-Y_1MNSm-28" value="Data&amp;nbsp;Slot 9&amp;nbsp;/ Array Slot 1" style="text;strokeColor=none;fillColor=none;spacingLeft=4;spacingRight=4;overflow=hidden;rotatable=0;points=[[0,0.5],[1,0.5]];portConstraint=eastwest;fontSize=12;whiteSpace=wrap;html=1;" parent="PTR7cAVYqw3V-Y_1MNSm-26" vertex="1">
          <mxGeometry y="56" width="190" height="34" as="geometry" />
        </mxCell>
        <mxCell id="PTR7cAVYqw3V-Y_1MNSm-29" value="Data&amp;nbsp;Slot 10&amp;nbsp;/ Array Slot 2" style="text;strokeColor=none;fillColor=none;spacingLeft=4;spacingRight=4;overflow=hidden;rotatable=0;points=[[0,0.5],[1,0.5]];portConstraint=eastwest;fontSize=12;whiteSpace=wrap;html=1;" parent="PTR7cAVYqw3V-Y_1MNSm-26" vertex="1">
          <mxGeometry y="90" width="190" height="30" as="geometry" />
        </mxCell>
        <mxCell id="PTR7cAVYqw3V-Y_1MNSm-30" value="Data&amp;nbsp;Slot 11&amp;nbsp;/ Array Slot 3" style="text;strokeColor=none;fillColor=none;spacingLeft=4;spacingRight=4;overflow=hidden;rotatable=0;points=[[0,0.5],[1,0.5]];portConstraint=eastwest;fontSize=12;whiteSpace=wrap;html=1;" parent="PTR7cAVYqw3V-Y_1MNSm-26" vertex="1">
          <mxGeometry y="120" width="190" height="30" as="geometry" />
        </mxCell>
        <mxCell id="PTR7cAVYqw3V-Y_1MNSm-31" value="Data&amp;nbsp;Slot 12&amp;nbsp;/ Array Slot 4" style="text;strokeColor=none;fillColor=none;spacingLeft=4;spacingRight=4;overflow=hidden;rotatable=0;points=[[0,0.5],[1,0.5]];portConstraint=eastwest;fontSize=12;whiteSpace=wrap;html=1;" parent="PTR7cAVYqw3V-Y_1MNSm-26" vertex="1">
          <mxGeometry y="150" width="190" height="30" as="geometry" />
        </mxCell>
        <mxCell id="PTR7cAVYqw3V-Y_1MNSm-32" value="Data&amp;nbsp;Slot 13&amp;nbsp;/ Array Slot 5" style="text;strokeColor=none;fillColor=none;spacingLeft=4;spacingRight=4;overflow=hidden;rotatable=0;points=[[0,0.5],[1,0.5]];portConstraint=eastwest;fontSize=12;whiteSpace=wrap;html=1;" parent="PTR7cAVYqw3V-Y_1MNSm-26" vertex="1">
          <mxGeometry y="180" width="190" height="30" as="geometry" />
        </mxCell>
        <mxCell id="PTR7cAVYqw3V-Y_1MNSm-33" value="Data&amp;nbsp;Slot 14&amp;nbsp;/ Array Slot 6" style="text;strokeColor=none;fillColor=none;spacingLeft=4;spacingRight=4;overflow=hidden;rotatable=0;points=[[0,0.5],[1,0.5]];portConstraint=eastwest;fontSize=12;whiteSpace=wrap;html=1;" parent="PTR7cAVYqw3V-Y_1MNSm-26" vertex="1">
          <mxGeometry y="210" width="190" height="30" as="geometry" />
        </mxCell>
        <mxCell id="PTR7cAVYqw3V-Y_1MNSm-34" value="Data&amp;nbsp;Slot 15&amp;nbsp;/ Array Slot 7&lt;div&gt;&lt;br&gt;&lt;/div&gt;" style="text;strokeColor=none;fillColor=none;spacingLeft=4;spacingRight=4;overflow=hidden;rotatable=0;points=[[0,0.5],[1,0.5]];portConstraint=eastwest;fontSize=12;whiteSpace=wrap;html=1;" parent="PTR7cAVYqw3V-Y_1MNSm-26" vertex="1">
          <mxGeometry y="240" width="190" height="30" as="geometry" />
        </mxCell>
        <mxCell id="PTR7cAVYqw3V-Y_1MNSm-35" value="Child Array (Level 0)" style="swimlane;fontStyle=0;childLayout=stackLayout;horizontal=1;startSize=26;horizontalStack=0;resizeParent=1;resizeParentMax=0;resizeLast=0;collapsible=1;marginBottom=0;align=center;fontSize=14;" parent="1" vertex="1">
          <mxGeometry x="490" y="400" width="190" height="270" as="geometry" />
        </mxCell>
        <mxCell id="PTR7cAVYqw3V-Y_1MNSm-36" value="Data&amp;nbsp;Slot 16&amp;nbsp;/ Array Slot 0" style="text;strokeColor=none;fillColor=none;spacingLeft=4;spacingRight=4;overflow=hidden;rotatable=0;points=[[0,0.5],[1,0.5]];portConstraint=eastwest;fontSize=12;whiteSpace=wrap;html=1;" parent="PTR7cAVYqw3V-Y_1MNSm-35" vertex="1">
          <mxGeometry y="26" width="190" height="30" as="geometry" />
        </mxCell>
        <mxCell id="PTR7cAVYqw3V-Y_1MNSm-37" value="Data&amp;nbsp;Slot 17&amp;nbsp;/ Array Slot 1" style="text;strokeColor=none;fillColor=none;spacingLeft=4;spacingRight=4;overflow=hidden;rotatable=0;points=[[0,0.5],[1,0.5]];portConstraint=eastwest;fontSize=12;whiteSpace=wrap;html=1;" parent="PTR7cAVYqw3V-Y_1MNSm-35" vertex="1">
          <mxGeometry y="56" width="190" height="34" as="geometry" />
        </mxCell>
        <mxCell id="PTR7cAVYqw3V-Y_1MNSm-38" value="Data&amp;nbsp;Slot 18&amp;nbsp;/ Array Slot 2" style="text;strokeColor=none;fillColor=none;spacingLeft=4;spacingRight=4;overflow=hidden;rotatable=0;points=[[0,0.5],[1,0.5]];portConstraint=eastwest;fontSize=12;whiteSpace=wrap;html=1;" parent="PTR7cAVYqw3V-Y_1MNSm-35" vertex="1">
          <mxGeometry y="90" width="190" height="30" as="geometry" />
        </mxCell>
        <mxCell id="PTR7cAVYqw3V-Y_1MNSm-39" value="Data&amp;nbsp;Slot 19&amp;nbsp;/ Array Slot 3" style="text;strokeColor=none;fillColor=none;spacingLeft=4;spacingRight=4;overflow=hidden;rotatable=0;points=[[0,0.5],[1,0.5]];portConstraint=eastwest;fontSize=12;whiteSpace=wrap;html=1;" parent="PTR7cAVYqw3V-Y_1MNSm-35" vertex="1">
          <mxGeometry y="120" width="190" height="30" as="geometry" />
        </mxCell>
        <mxCell id="PTR7cAVYqw3V-Y_1MNSm-40" value="Data&amp;nbsp;Slot 20&amp;nbsp;/ Array Slot 4" style="text;strokeColor=none;fillColor=none;spacingLeft=4;spacingRight=4;overflow=hidden;rotatable=0;points=[[0,0.5],[1,0.5]];portConstraint=eastwest;fontSize=12;whiteSpace=wrap;html=1;" parent="PTR7cAVYqw3V-Y_1MNSm-35" vertex="1">
          <mxGeometry y="150" width="190" height="30" as="geometry" />
        </mxCell>
        <mxCell id="PTR7cAVYqw3V-Y_1MNSm-41" value="Data&amp;nbsp;Slot 21&amp;nbsp;/ Array Slot 5" style="text;strokeColor=none;fillColor=none;spacingLeft=4;spacingRight=4;overflow=hidden;rotatable=0;points=[[0,0.5],[1,0.5]];portConstraint=eastwest;fontSize=12;whiteSpace=wrap;html=1;" parent="PTR7cAVYqw3V-Y_1MNSm-35" vertex="1">
          <mxGeometry y="180" width="190" height="30" as="geometry" />
        </mxCell>
        <mxCell id="PTR7cAVYqw3V-Y_1MNSm-42" value="Data&amp;nbsp;Slot 22&amp;nbsp;/ Array Slot 6" style="text;strokeColor=none;fillColor=none;spacingLeft=4;spacingRight=4;overflow=hidden;rotatable=0;points=[[0,0.5],[1,0.5]];portConstraint=eastwest;fontSize=12;whiteSpace=wrap;html=1;" parent="PTR7cAVYqw3V-Y_1MNSm-35" vertex="1">
          <mxGeometry y="210" width="190" height="30" as="geometry" />
        </mxCell>
        <mxCell id="PTR7cAVYqw3V-Y_1MNSm-43" value="Data&amp;nbsp;Slot 23&amp;nbsp;/ Array Slot 7&lt;div&gt;&lt;br&gt;&lt;/div&gt;" style="text;strokeColor=none;fillColor=none;spacingLeft=4;spacingRight=4;overflow=hidden;rotatable=0;points=[[0,0.5],[1,0.5]];portConstraint=eastwest;fontSize=12;whiteSpace=wrap;html=1;" parent="PTR7cAVYqw3V-Y_1MNSm-35" vertex="1">
          <mxGeometry y="240" width="190" height="30" as="geometry" />
        </mxCell>
        <mxCell id="PTR7cAVYqw3V-Y_1MNSm-44" value="" style="edgeStyle=entityRelationEdgeStyle;endArrow=ERzeroToMany;startArrow=ERone;endFill=1;startFill=0;exitX=0;exitY=0.5;exitDx=0;exitDy=0;entryX=0.108;entryY=0.001;entryDx=0;entryDy=0;entryPerimeter=0;" parent="1" source="PTR7cAVYqw3V-Y_1MNSm-3" target="PTR7cAVYqw3V-Y_1MNSm-26" edge="1">
          <mxGeometry width="100" height="100" relative="1" as="geometry">
            <mxPoint x="470" y="111" as="sourcePoint" />
            <mxPoint x="90" y="410" as="targetPoint" />
            <Array as="points">
              <mxPoint x="190" y="340" />
              <mxPoint x="390" y="180" />
              <mxPoint x="280" y="230" />
            </Array>
          </mxGeometry>
        </mxCell>
        <mxCell id="PTR7cAVYqw3V-Y_1MNSm-45" value="" style="edgeStyle=entityRelationEdgeStyle;endArrow=ERzeroToMany;startArrow=ERone;endFill=1;startFill=0;exitX=0;exitY=0.5;exitDx=0;exitDy=0;entryX=0.125;entryY=0.001;entryDx=0;entryDy=0;entryPerimeter=0;" parent="1" source="PTR7cAVYqw3V-Y_1MNSm-4" target="PTR7cAVYqw3V-Y_1MNSm-35" edge="1">
          <mxGeometry width="100" height="100" relative="1" as="geometry">
            <mxPoint x="630" y="153" as="sourcePoint" />
            <mxPoint x="510" y="390" as="targetPoint" />
            <Array as="points">
              <mxPoint x="200" y="350" />
              <mxPoint x="400" y="190" />
              <mxPoint x="290" y="240" />
            </Array>
          </mxGeometry>
        </mxCell>
      </root>
    </mxGraphModel>
  </diagram>
</mxfile>
